<mxfile host="app.diagrams.net" modified="2023-10-16T01:54:42.681Z" agent="Mozilla/5.0 (Windows NT 10.0; Win64; x64; rv:109.0) Gecko/20100101 Firefox/118.0" etag="I6knD3qmvFb9GfBiDQ28" version="22.0.4" type="github">
  <diagram id="C5RBs43oDa-KdzZeNtuy" name="Page-1">
    <mxGraphModel dx="880" dy="425" grid="1" gridSize="10" guides="1" tooltips="1" connect="1" arrows="1" fold="1" page="1" pageScale="1" pageWidth="827" pageHeight="1169" math="0" shadow="0">
      <root>
        <mxCell id="WIyWlLk6GJQsqaUBKTNV-0" />
        <mxCell id="WIyWlLk6GJQsqaUBKTNV-1" parent="WIyWlLk6GJQsqaUBKTNV-0" />
        <mxCell id="i4pAUqFWEOI5QGJ4tQWY-7" style="edgeStyle=orthogonalEdgeStyle;rounded=0;orthogonalLoop=1;jettySize=auto;html=1;entryX=0.5;entryY=0;entryDx=0;entryDy=0;" edge="1" parent="WIyWlLk6GJQsqaUBKTNV-1" source="i4pAUqFWEOI5QGJ4tQWY-0" target="i4pAUqFWEOI5QGJ4tQWY-1">
          <mxGeometry relative="1" as="geometry" />
        </mxCell>
        <mxCell id="i4pAUqFWEOI5QGJ4tQWY-0" value="start" style="strokeWidth=2;html=1;shape=mxgraph.flowchart.terminator;whiteSpace=wrap;" vertex="1" parent="WIyWlLk6GJQsqaUBKTNV-1">
          <mxGeometry x="305" y="50" width="90" height="50" as="geometry" />
        </mxCell>
        <mxCell id="i4pAUqFWEOI5QGJ4tQWY-9" style="edgeStyle=orthogonalEdgeStyle;rounded=0;orthogonalLoop=1;jettySize=auto;html=1;entryX=0.5;entryY=0;entryDx=0;entryDy=0;" edge="1" parent="WIyWlLk6GJQsqaUBKTNV-1" source="i4pAUqFWEOI5QGJ4tQWY-1" target="i4pAUqFWEOI5QGJ4tQWY-2">
          <mxGeometry relative="1" as="geometry" />
        </mxCell>
        <mxCell id="i4pAUqFWEOI5QGJ4tQWY-1" value="masukkan alas" style="shape=parallelogram;html=1;strokeWidth=2;perimeter=parallelogramPerimeter;whiteSpace=wrap;rounded=1;arcSize=12;size=0.23;" vertex="1" parent="WIyWlLk6GJQsqaUBKTNV-1">
          <mxGeometry x="289" y="130" width="125" height="40" as="geometry" />
        </mxCell>
        <mxCell id="i4pAUqFWEOI5QGJ4tQWY-10" style="edgeStyle=orthogonalEdgeStyle;rounded=0;orthogonalLoop=1;jettySize=auto;html=1;entryX=0.5;entryY=0;entryDx=0;entryDy=0;" edge="1" parent="WIyWlLk6GJQsqaUBKTNV-1" source="i4pAUqFWEOI5QGJ4tQWY-2" target="i4pAUqFWEOI5QGJ4tQWY-3">
          <mxGeometry relative="1" as="geometry" />
        </mxCell>
        <mxCell id="i4pAUqFWEOI5QGJ4tQWY-2" value="masukkan tinggi" style="shape=parallelogram;html=1;strokeWidth=2;perimeter=parallelogramPerimeter;whiteSpace=wrap;rounded=1;arcSize=12;size=0.23;" vertex="1" parent="WIyWlLk6GJQsqaUBKTNV-1">
          <mxGeometry x="262.5" y="200" width="180" height="40" as="geometry" />
        </mxCell>
        <mxCell id="i4pAUqFWEOI5QGJ4tQWY-11" style="edgeStyle=orthogonalEdgeStyle;rounded=0;orthogonalLoop=1;jettySize=auto;html=1;entryX=0.5;entryY=0;entryDx=0;entryDy=0;" edge="1" parent="WIyWlLk6GJQsqaUBKTNV-1" source="i4pAUqFWEOI5QGJ4tQWY-3" target="i4pAUqFWEOI5QGJ4tQWY-4">
          <mxGeometry relative="1" as="geometry" />
        </mxCell>
        <mxCell id="i4pAUqFWEOI5QGJ4tQWY-3" value="luas=1/2*(alas*tinggi)" style="rounded=1;whiteSpace=wrap;html=1;absoluteArcSize=1;arcSize=14;strokeWidth=2;" vertex="1" parent="WIyWlLk6GJQsqaUBKTNV-1">
          <mxGeometry x="285" y="280" width="135" height="50" as="geometry" />
        </mxCell>
        <mxCell id="i4pAUqFWEOI5QGJ4tQWY-4" value="tampil luas segitiga" style="shape=parallelogram;html=1;strokeWidth=2;perimeter=parallelogramPerimeter;whiteSpace=wrap;rounded=1;arcSize=12;size=0.23;" vertex="1" parent="WIyWlLk6GJQsqaUBKTNV-1">
          <mxGeometry x="266.5" y="370" width="170" height="50" as="geometry" />
        </mxCell>
        <mxCell id="i4pAUqFWEOI5QGJ4tQWY-5" value="end" style="strokeWidth=2;html=1;shape=mxgraph.flowchart.terminator;whiteSpace=wrap;" vertex="1" parent="WIyWlLk6GJQsqaUBKTNV-1">
          <mxGeometry x="305" y="450" width="90" height="50" as="geometry" />
        </mxCell>
        <mxCell id="i4pAUqFWEOI5QGJ4tQWY-12" style="edgeStyle=orthogonalEdgeStyle;rounded=0;orthogonalLoop=1;jettySize=auto;html=1;entryX=0.5;entryY=0;entryDx=0;entryDy=0;entryPerimeter=0;" edge="1" parent="WIyWlLk6GJQsqaUBKTNV-1" source="i4pAUqFWEOI5QGJ4tQWY-4" target="i4pAUqFWEOI5QGJ4tQWY-5">
          <mxGeometry relative="1" as="geometry" />
        </mxCell>
      </root>
    </mxGraphModel>
  </diagram>
</mxfile>
